/* XPM */
static char *result[] = {
/* columns rows colors chars-per-pixel */
"32 32 200 2 ",
"   c #010101",
".  c #020203",
"X  c #020303",
"o  c #040404",
"O  c #040405",
"+  c #050606",
"@  c #060707",
"#  c #060708",
"$  c #080909",
"%  c #090B0B",
"&  c #0A0B0B",
"*  c #0B0C0D",
"=  c #0C0E0E",
"-  c #0D0E0F",
";  c #0D0F10",
":  c #0E0F10",
">  c #0D1010",
",  c #0F1112",
"<  c #101313",
"1  c #121415",
"2  c #131515",
"3  c #131617",
"4  c #141818",
"5  c #161818",
"6  c #171819",
"7  c #16191A",
"8  c #171B1C",
"9  c #181A1B",
"0  c #191C1E",
"q  c #1A1E1F",
"w  c #1E1F20",
"e  c #1B2021",
"r  c #1F2121",
"t  c #1C2022",
"y  c #1D2122",
"u  c #1D2123",
"i  c #1E2324",
"p  c #202122",
"a  c #202324",
"s  c #212324",
"d  c #202426",
"f  c #202526",
"g  c #232526",
"h  c #232627",
"j  c #212628",
"k  c #222829",
"l  c #232829",
"z  c #24292B",
"x  c #242A2C",
"c  c #252B2D",
"v  c #272D2E",
"b  c #292A2A",
"n  c #282C2D",
"m  c #282E30",
"M  c #2B2F30",
"N  c #2C2F30",
"B  c #293031",
"V  c #293032",
"C  c #2B3133",
"Z  c #2B3233",
"A  c #2C3335",
"S  c #2E3334",
"D  c #313536",
"F  c #323536",
"G  c #343535",
"H  c #313739",
"J  c #33383A",
"K  c #35393B",
"L  c #363A3C",
"P  c #3F4445",
"I  c #444646",
"U  c #464848",
"Y  c #494A4A",
"T  c #484C4D",
"R  c #484C4E",
"E  c #494D4E",
"W  c #4A4D4E",
"Q  c #4A4F50",
"!  c #4D5152",
"~  c #515454",
"^  c #525556",
"/  c #535758",
"(  c #585A5B",
")  c #595A5B",
"_  c #5A5B5B",
"`  c #5A5C5C",
"'  c #595E5F",
"]  c #5E6060",
"[  c #5D6162",
"{  c #616465",
"}  c #636464",
"|  c #616566",
" . c #626768",
".. c #636768",
"X. c #676A6A",
"o. c #676A6B",
"O. c #686A6A",
"+. c #686B6C",
"@. c #6A6D6D",
"#. c #6B6E6E",
"$. c #6A6E70",
"%. c #6C6F70",
"&. c #6D6F70",
"*. c #707171",
"=. c #707273",
"-. c #717374",
";. c #727576",
":. c #737576",
">. c #757778",
",. c #787879",
"<. c #787A7A",
"1. c #7E8080",
"2. c #7F8181",
"3. c #848586",
"4. c #848686",
"5. c #86898A",
"6. c #87898A",
"7. c #898A8B",
"8. c #8B8E8E",
"9. c #8B8F8F",
"0. c #8D8F8F",
"q. c #8E8F90",
"w. c #8E9091",
"e. c #909191",
"r. c #929494",
"t. c #939595",
"y. c #949696",
"u. c #9A9A9A",
"i. c #9C9D9D",
"p. c #9D9E9E",
"a. c #9E9F9F",
"s. c #A0A1A2",
"d. c #A1A3A3",
"f. c #A2A3A4",
"g. c #A3A4A5",
"h. c #A4A4A5",
"j. c gray65",
"k. c #A6A7A7",
"l. c #A5A7A8",
"z. c #A7A8A8",
"x. c #AAACAD",
"c. c #ADAEAE",
"v. c #AFB0B0",
"b. c #B1B2B2",
"n. c #B2B3B3",
"m. c #B3B4B4",
"M. c #B4B6B6",
"N. c #B7B8B8",
"B. c #B9BABA",
"V. c #BABBBC",
"C. c #BBBBBC",
"Z. c #BBBCBC",
"A. c #C0C0C0",
"S. c #C1C2C2",
"D. c #C4C5C5",
"F. c #C8C9C9",
"G. c #CACACA",
"H. c #CACBCB",
"J. c #CCCDCD",
"K. c #CCCDCE",
"L. c #CDCECE",
"P. c #CECFCF",
"I. c gray82",
"U. c #D3D4D4",
"Y. c #D4D5D5",
"T. c #D5D6D6",
"R. c #D7D7D7",
"E. c #D8D8D8",
"W. c #DADBDB",
"Q. c #DBDCDC",
"!. c gainsboro",
"~. c #DCDDDD",
"^. c #DDDEDE",
"/. c #DEDFDF",
"(. c #DFDFDF",
"). c #E0E1E1",
"_. c #E2E2E2",
"`. c #E2E3E3",
"'. c #E4E5E5",
"]. c gray90",
"[. c #E6E6E6",
"{. c #E7E7E7",
"}. c #EAEBEB",
"|. c #ECEDED",
" X c #EEEEEE",
".X c gray94",
"XX c #F0F1F1",
"oX c #F2F3F3",
"OX c #F3F3F3",
"+X c #F4F4F4",
"@X c #F4F4F5",
"#X c #F6F7F7",
"$X c gray97",
"%X c #F8F8F8",
"&X c #FBFBFB",
"*X c gray99",
"=X c #FDFDFD",
"-X c #FEFEFE",
";X c white",
":X c None",
/* pixels */
":X:X:X:X:X:X:X:X:X:X:X:X                :X:X:X:X:X:X:X:X:X:X:X:X",
":X:X:X:X:X:X:X:X:XX . . . . . . . . . . . . X :X:X:X:X:X:X:X:X:X",
":X:X:X:X:X:X:XO o o o o o o o o o o o o o o o o O :X:X:X:X:X:X:X",
":X:X:X:X:X:X+ + + + + + + + + + @ } G & + + + + + + :X:X:X:X:X:X",
":X:X:X:X:X# # # # # # # # # # # b ;X;Xj.# # # # # # # :X:X:X:X:X",
":X:X:X:X$ $ $ $ $ $ $ $ $ $ $ $ _ ;X;X,.$ $ $ $ $ $ $ $ :X:X:X:X",
":X:X:X% % % % % % % % % % : r p e.;X;XY % % % % % % % % % :X:X:X",
":X:X* * * * * * * * I u.E.*X;X;X;X-X-X) * * * * * * * * * * :X:X",
":X:X= = = = = = = 6 I.;X;X;X(.H.G.(.;X;XB.w - = = = = = = = :X:X",
":X> ; ; ; ; ; ; ; ; 5 %X;X.Xh.C.v.R.J.=X;XT.A.2 ; ; ; ; ; ; > :X",
":X, , , , , , , , , g ;X;XP.0., , 9 m.U.;X;X$X*., , , , , , , :X",
":X< < < < < < < < < U ;X;Xc.q.< < < s s.;X;X^.b.< < < < < < < :X",
"1 1 1 1 1 1 1 1 1 1 O.;X;Xp.1.1 1 1 1 3.;X;XD.m.1 1 1 1 1 1 1 1 ",
"3 3 3 3 3 3 3 3 N ` i.;X;Xa.] 3 3 3 a (.;X;Xz.2.3 3 3 3 3 3 3 3 ",
"4 4 4 4 4 4 4 4 0.`.&X;X;X).k.<.>.y.'.;X%X7.S.h 4 4 4 4 4 4 4 4 ",
"7 7 7 7 7 7 7 7 ~ X.!.;X;X1.w.N.|.;X;Xg.:.r.F 7 7 7 7 7 7 7 7 7 ",
"8 8 8 8 8 8 8 8 8 8  X;X+X4.=.:.&.@./.;XB.y 8 8 8 8 8 8 8 8 8 8 ",
"0 0 0 0 0 0 0 0 0 n ;X;XY.r.0 0 h X.-.-X;Xn.( 0 0 0 0 0 0 0 0 0 ",
"q q q q q q q q q W ;X;XM.t.q q q q ^ |.;X=XW.M q q q q q q q q ",
"e e e e e e e e e #.;X;Xd.6.e e e e t OX;X;X).o.e e e e e e e e ",
":Xu u u u u u u u 8.;X;Xf.+.u u u u ! ;X;X;X_.;.u u u u u u u :X",
":Xi i i i i i i D K.;X;Xl.E i i i K Y.;X;X*X[./ i i i i i i i :X",
":Xd f f f f f T [.;X;X;X;X{.L.Z.F.%X;X;X;XQ.].l f f f f f f d :X",
":X:Xj j j j j L }.+X+X+X+X+X@X%X;X;X;XXX~.oX{ j j j j j j j :X:X",
":X:Xk k k k k k S ! %.8.x.=X-X&X#X%X.XOX^.[ k k k k k k k k :X:X",
":X:X:Xz z z z z z z z z P ;X;XV.Q | ..R x z z z z z z z z :X:X:X",
":X:X:X:Xc c c c c c c c $.;X;X9.c c c c c c c c c c c c :X:X:X:X",
":X:X:X:X:Xv v v v v v v 5.=X;X .v v v v v v v v v v v :X:X:X:X:X",
":X:X:X:X:X:Xm m m m m m m H ' J m m m m m m m m m m :X:X:X:X:X:X",
":X:X:X:X:X:X:XB V V V V V V V V V V V V V V V V B :X:X:X:X:X:X:X",
":X:X:X:X:X:X:X:X:XC Z Z Z Z Z Z Z Z Z Z Z Z C :X:X:X:X:X:X:X:X:X",
":X:X:X:X:X:X:X:X:X:X:X:XA A A A A A A A :X:X:X:X:X:X:X:X:X:X:X:X"
};
