/* XPM */
static char *result[] = {
/* columns rows colors chars-per-pixel */
"64 64 82 1 ",
"  c #040404",
". c #070909",
"X c #0A0C0C",
"o c #0D0F10",
"O c #0E1111",
"+ c #121415",
"@ c #141718",
"# c #16191A",
"$ c #191D1E",
"% c #1A1E20",
"& c #1D2223",
"* c #212526",
"= c #222729",
"- c #252B2C",
"; c #292D2E",
": c #282F31",
"> c #2B3133",
", c #323435",
"< c #343738",
"1 c #35393A",
"2 c #3A3C3C",
"3 c #3E4142",
"4 c #414444",
"5 c #454748",
"6 c #45494A",
"7 c #494C4D",
"8 c #4B4F51",
"9 c #4E5051",
"0 c #525354",
"q c #515658",
"w c #565A5B",
"e c #5A5C5D",
"r c #5D5F60",
"t c #5E6162",
"y c #626464",
"u c #656768",
"i c #666969",
"p c #6A6C6D",
"a c #6F7172",
"s c #727474",
"d c #747879",
"f c #7A7C7D",
"g c #7D7F80",
"h c #7F8182",
"j c #828485",
"k c #858788",
"l c #868889",
"z c #8A8C8D",
"x c #8D8F90",
"c c #8E9192",
"v c #949595",
"b c #969798",
"n c #979A9A",
"m c #9B9C9C",
"M c #9E9FA0",
"N c #9FA1A1",
"B c #A2A4A4",
"V c #A5A7A8",
"C c #A7A8A9",
"Z c #ACADAD",
"A c #AFAFB0",
"S c #AFB0B0",
"D c #B2B3B3",
"F c #B7B8B8",
"G c #BABBBC",
"H c #BEBFC0",
"J c #BFC0C1",
"K c #C3C4C5",
"L c #C7C8C8",
"P c #CCCDCD",
"I c #CFD0D0",
"U c #D3D4D4",
"Y c #D7D8D8",
"T c #DCDCDC",
"R c #DFE0E0",
"E c #E3E3E3",
"W c #E7E8E8",
"Q c #EBEBEB",
"! c #F4F4F4",
"~ c #F7F8F8",
"^ c #FFFFFF",
"/ c None",
/* pixels */
"//////////////////////////            //////////////////////////",
"//////////////////////                    //////////////////////",
"////////////////////                        ////////////////////",
"/////////////////                              /////////////////",
"////////////////                                ////////////////",
"//////////////                                    //////////////",
"/////////////.      .         .  .   .     .   .   /////////////",
"///////////.  . . . .  .    .  . XYZf7#  .   . . .. .///////////",
"//////////.. . .... . . . ... ...,^^^^^y. ..... . .. .//////////",
"/////////........................y^^^^^1.............../////////",
"////////..................X......v^^^^~O................////////",
"///////...X.X.X..X....X.......X..K^^^^I.....X......X.....///////",
"///////..XXX.X.XX.XX.XXXXX.X..X.X!^^^^B.XXX.XX.XX.XX.X.XX///////",
"//////XXXX.XXX.XXXX.XX...XX%,22<4^^^^^s.X.XXX.XXXXX.XXXX.X//////",
"/////XXXXXXXXXXXXXXXXX@ebP!^^^^^^^^^^^4XXXXXXXXXXXXXXXXXXXX/////",
"/////oXoXXXXoXXXoXXX9A~^^^^^^^^^^^^^^^K0XXXoXXXooXXXoXoXoXX/////",
"////XXOXXoXXXoXoXoo1~^^^^^^^^^^^^^^^^^^^K,oXXoooXOXXXooXoXXX////",
"///oOXoOooooXooXOXXoe!^^^^^^RMnvvvmE^^^^^!0XOoXXOXoOooXoooooo///",
"///XOXooooOOOoooOXOXX>Q^^^^!4~^^^^~GB~^^^^~tP7ooXXooooooooooO///",
"///++OoOooOOOoOOOOOOOO!^^^^UuQve0aD~~m~^^^^^^Q*o++X+oooooooOo///",
"//OoXOOOOOOOOOOOOXX+O-^^^^^DkvOXOOO<U!B^^^^^^^m+OOOX++OOOOOO+o//",
"//OO+O+OOOOOOO+O+++X+6^^^^^zZs++OOOO*RD~^^^^~W~$X+OO+XOoOOOOo+//",
"/+O+O+O+O++OO+OO+oO++p^^^^^pP9+oo++++0UI^^^^^P^0++X+++O++OO+O++/",
"/+O++o+++O++O++++++++z^^^^^9Q;+++o++++$K^^^^^Z^s+++++O+O++O++++/",
"/+++@O@@OO@O+++++++++S^^^^^2~@+++++++++T^^^^^v^s@O@OO@@O+++++++/",
"/+++O@@O@@@@+++++++++P^^^^~5T+++++++++=^^^^^~j^e@@O@@O@O++++++@/",
"@++@@@@@@@@O++#+@@++@!^^^^UiG+@@+@@+@@l^^^^^KB^;@@@@@@@@+@+@+@@+",
"+@@+O@@@O@@@#+++@dFzp^^^^^Dzn@+@@++@@7!^^^^^0WK+@OO@@@@@+@@+@@+@",
"@@@@@@@@@@@@@@@@<!^^^^^^^^KKl@@@@@$4n~^^^^^fh^9@@@@@@@@@@@@@@@@@",
"@@$@@@@@@####@@#tZGIQ^^^^^^^^~EUUT!^^^^^^Re9!c###@#@@@@#$@@@@@@@",
"#$@@@@@#########$$##z^^^^^UT~^^^^^^^^^UVt$a!h$########$@@@$@$@@#",
"$@$@$$$@########0JGGW^^^^^,@@,wlG~^^^^DykIZ3###########@$$@$@@$#",
"########$@$@$@####$@P^^^^~2Znjt1$*pI^^^^T>###$#$###$#####$##$$@$",
"$$$#$$$$$#$$$$$#$$#$Q^^^^TiK5ylDUZe$g^^^^T,#$##$$##$$$$$#$$$$@#$",
"$$$$$$$$$$$$#$$$$$$-^^^^^GlN$$$$$4vG<b^^^^U-$$$$$$$$$$$$$$$#$$$$",
"$$$$$$$$$$$$$$$$$$$7^^^^^nVh$$$$$$$<F4^^^^^PQ4$$$$$$$$$$$$$$$$$$",
"$%$%$$%$$%$%$%$%$$%p^^^^^fLt%$%$%$$$,NT^^^^~UU&%$$$$%%%$$%%%$$%$",
"$%%%&$%%%%%%%$&$%%%z^^^^^eW3$$%%%%%&%tY^^^^^K^t%%%%%%%%%%%$$$%%%",
"/$%%$%&$%$%%$&%$&$%Z^^^^^5^&%&$&&$$$%%Y^^^^^K^B$%$%%%$%$%%%%%%%/",
"/&%&&$&%&&%&&$&&$&$P^^^^~6E&$&&&%&&%&&~^^^^^K^K%*$*$*$*$%*%*%$*/",
"/*%&&&%&&&&&&%&&&&&W^^^^TiK&&&&&&&&%&9^^^^^^K^I&&&&&&&&&%**$&%&/",
"/&&&&&&&&&&&&&&&&&;^^^^^JlV&&&&&&&&&&Z^^^^^^K^K&&&&&&&&&*%%*&&&/",
"//&&&&&&&&&&&&&&&&9^^^^^NVl&&&&&&&&&t^^^^^^^K^B&&&&&&&&***$%&&//",
"//***&&&=&=&&&&=&pW^^^^^zLi&&&&&*&*f~^^^^^^!U^s*&&&&&&&&%*****//",
"///&*&&=&=&&=&&<G^^^^^^^^^RHVcfshBE^^^^^^^^H^~>*=&=&&=&==&=&*///",
"///***&==&=**=-ZE^^^^^^^^^^^^^^^^^^^^^^^^^PR^N**&=&==&=&*=&**///",
"///***==*******:HQWQWWWQ~^^^^^^^^^^^^^^^^KT^E>======*****=***///",
"////===========p^^^^^^^^!WWQWWQ~^^^^^^~PJ!^!9==========*====////",
"/////===========>8pkVKW^^^^^^^^QQQ!!WTU~^^R7===============/////",
"/////-=-=-==-==-&-=-=-&:6u~^^^^^^^^^^^^^Wx>==-=-===--=-==-=/////",
"//////=------=-----=-=---6^^^^^vyhnVZmjw-------=-----=----//////",
"///////--=-=---=&------=-a^^^^^w----=-----=-=---=-=--=---///////",
"///////------------------m^^^^^,-------------------------///////",
"////////-:--;------------L^^^^T-------------------:-----////////",
"/////////:--;--;-::-:-:--!^^^^D-:-:--:-:-:-:------:---://///////",
"//////////:-:;;;:-:-::-:1I!^^^z:::-:-::-:-:;::::>-:->-//////////",
"///////////:::::::::::::>>>3gNq>::->:::-:::::::::::::///////////",
"/////////////:::::::::>::>>:->:>:::::::>>:::::::::://///////////",
"//////////////:>>:>>:::::>:>::>>::>:>::>:::>::::>://////////////",
"////////////////>>>>>>>::>:>::>>>>>:>>:>:>>>:>>>////////////////",
"/////////////////1>>>>>>>>>>>>>>>>>>>>>>>>>>>>>/////////////////",
"////////////////////>>>>>>>>>>>>>>>>>>>>>>>,////////////////////",
"//////////////////////1>11>>>>>>>>>>>>>>>>//////////////////////",
"//////////////////////////>>>1>1>1<><,//////////////////////////"
};
