/* XPM */
static char *result[] = {
/* columns rows colors chars-per-pixel */
"16 16 99 2 ",
"   c #010202",
".  c #020202",
"X  c #040505",
"o  c #050506",
"O  c #070808",
"+  c #070809",
"@  c #0A0B0C",
"#  c #0A0C0C",
"$  c #0D0F0F",
"%  c #0F1112",
"&  c #0F1213",
"*  c #111212",
"=  c #101213",
"-  c #121415",
";  c #121516",
":  c #151819",
">  c #181C1D",
",  c #1C1D1D",
"<  c #1B1F20",
"1  c #1C1F20",
"2  c #1D2223",
"3  c #1E2223",
"4  c #202527",
"5  c #232829",
"6  c #23282A",
"7  c #23292A",
"8  c #262C2D",
"9  c #262C2E",
"0  c #282B2C",
"q  c #2A2D2D",
"w  c #282F30",
"e  c #292F31",
"r  c #2B3133",
"t  c #2B3234",
"y  c #2C3234",
"u  c #303436",
"i  c #313637",
"p  c #3B3C3D",
"a  c #383D3F",
"s  c #3A3E3F",
"d  c #3C3D3E",
"f  c #404243",
"g  c #454849",
"h  c #4B4E4E",
"j  c #4F5051",
"k  c #505455",
"l  c #585B5C",
"z  c #616566",
"x  c #626667",
"c  c #656767",
"v  c #696C6D",
"b  c #7B7C7C",
"n  c #7E8181",
"m  c #8A8C8C",
"M  c #8F9090",
"N  c #929393",
"B  c #939596",
"V  c #999A9B",
"C  c #9A9B9B",
"Z  c #9C9E9E",
"A  c #A0A1A1",
"S  c #A1A3A3",
"D  c #A2A3A3",
"F  c #A3A5A6",
"G  c #A4A6A6",
"H  c #A7A8A9",
"J  c #A7A9A9",
"K  c gray66",
"L  c #ABABAC",
"P  c #B7B8B8",
"I  c #B8B9B9",
"U  c #B9BBBC",
"Y  c #BBBDBD",
"T  c #BDBEBE",
"R  c #C0C1C1",
"E  c #C2C2C3",
"W  c gray78",
"Q  c #C8C9C9",
"!  c gray80",
"~  c #CECFCF",
"^  c #D3D4D4",
"/  c #D7D8D8",
"(  c #DDDEDE",
")  c #DEDFDF",
"_  c #E1E2E2",
"`  c gray89",
"'  c #EAEBEB",
"]  c #ECEDED",
"[  c gray94",
"{  c #F1F1F1",
"}  c gray95",
"|  c #F3F4F4",
" . c gray96",
".. c gray98",
"X. c #FBFBFB",
"o. c #FEFEFE",
"O. c #FEFFFF",
"+. c white",
"@. c None",
/* pixels */
"@.@.@.@.@.. .     . . @.@.@.@.@.",
"@.@.@.o X X X X , * X X o @.@.@.",
"@.@.+ O O O O O A W O O O + @.@.",
"@.# @ @ @ d b M ` K @ @ @ @ # @.",
"@.$ $ $ % P X.E ! } L p $ $ $ @.",
"= & & & & C ) j - N +.T & & & = ",
"; ; ; ; q R ~ f ; c +.H ; ; ; ; ",
": : : : m  ./ V T _ S h : : : : ",
"> > > > 1 X.I g l ^ D 0 > > > > ",
"< < < < s +.Z < < B O.B < < < < ",
"2 3 3 3 v +.n 3 5 Q o.F 3 3 3 2 ",
"@.4 4 u { ..| ( [ X.' x 4 4 4 @.",
"@.6 7 7 i k U ] J G z 7 7 7 6 @.",
"@.@.8 9 9 9 Y Y 9 9 9 9 9 8 @.@.",
"@.@.@.w e e r a e e e e w @.@.@.",
"@.@.@.@.@.t t y y t t @.@.@.@.@."
};
