/* XPM */
static char *result[] = {
/* columns rows colors chars-per-pixel */
"128 128 85 1 ",
"  c #040404",
". c #070808",
"X c #0A0C0C",
"o c #0D0F10",
"O c #0F1111",
"+ c #121415",
"@ c #141718",
"# c #161A1B",
"$ c #191D1E",
"% c #1B1F20",
"& c #1D2223",
"* c #212527",
"= c #222728",
"- c #252A2C",
"; c #282E2F",
": c #292F30",
"> c #2B3133",
", c #323435",
"< c #333738",
"1 c #363939",
"2 c #3A3D3E",
"3 c #3C3F40",
"4 c #3D4142",
"5 c #424545",
"6 c #444748",
"7 c #46494A",
"8 c #4B4D4D",
"9 c #4C4F50",
"0 c #4E5152",
"q c #535556",
"w c #535758",
"e c #575A5B",
"r c #5A5D5D",
"t c #5B5F60",
"y c #5E6161",
"u c #636565",
"i c #656768",
"p c #66696A",
"a c #6A6C6D",
"s c #6D6F70",
"d c #6F7171",
"f c #727474",
"g c #757778",
"h c #76797A",
"j c #7A7C7D",
"k c #7D7F80",
"l c #7F8081",
"z c #838585",
"x c #858788",
"c c #868989",
"v c #8A8C8C",
"b c #8E9091",
"n c #929494",
"m c #969798",
"M c #969899",
"N c #9B9C9D",
"B c #9E9FA0",
"V c #9EA0A1",
"C c #A2A4A4",
"Z c #A5A7A8",
"A c #A6A8A9",
"S c #ABACAD",
"D c #AFAFB0",
"F c #AFB0B0",
"G c #B2B3B4",
"H c #B7B8B8",
"J c #BBBCBC",
"K c #BFC0C1",
"L c #C3C4C4",
"P c #C7C8C8",
"I c #CBCCCC",
"U c #CFCFD0",
"Y c #CFD0D0",
"T c #D4D4D4",
"R c #D7D7D8",
"E c #D7D8D8",
"W c #DCDCDC",
"Q c #DFE0E0",
"! c #E3E4E4",
"~ c #E7E7E8",
"^ c #EBEBEB",
"/ c #EFF0F0",
"( c #F4F4F4",
") c #FFFFFF",
"_ c None",
/* pixels */
"________________________________________________________                ________________________________________________________",
"__________________________________________________                            __________________________________________________",
"______________________________________________                                    ______________________________________________",
"___________________________________________                                          ___________________________________________",
"________________________________________                                                ________________________________________",
"______________________________________                                                    ______________________________________",
"____________________________________                                                        ____________________________________",
"__________________________________                                                            __________________________________",
"________________________________                                                                ________________________________",
"______________________________                                                                    ______________________________",
"_____________________________                 .                                 .                  _____________________________",
"___________________________                                 .                                  .     ___________________________",
"__________________________                                          .  .                      .       __________________________",
"_________________________. . .. .  . . .     ..   .  ..   . .  .   .    . .      ..  . .        . .  .._________________________",
"_______________________  ..    . .. .   . .         . . . ..  . .  .HCf5+. .   ..  ..     .  ..     . . ._______________________",
"______________________...  ... . .  .... . .. .  ....  . .  .  .  .#)))))WSj8$ .  . ....... .  ......  . .______________________",
"_____________________ . ....  .... . ...  .... . ....... ...... ...8))))))))))P .. .... ... ... ...  . .. ._____________________",
"____________________.... . .... ....... .. .......  . .... .  .. . h))))))))))G . . . ...... .... ..........____________________",
"___________________................................................A))))))))))z..............................___________________",
"__________________.................................................W))))))))))0...............................__________________",
"_________________............................X.X..................+)))))))))))*...........X....X.....X........._________________",
"________________.....XX.X.........X...X...........X..XX...X.X..X..5))))))))))~.X..X.........X...............X...________________",
"_______________......X.....X.........X.......X...X............X...f))))))))))H..X.X...X.X.......X..X......X......_______________",
"______________X.X.XXX.X.XX.XX.XXX.XXX.X.X.XXX..X...X.X.XX.XX.X..X.C))))))))))cX.X...XX.X.X.X.X.X..X.X.X.XX.XX.XXX.______________",
"______________.XX..X.XX..X.X..X.X.XX.X.XX...XX.XXXX.XX.X.X..XXX.X.T))))))))))e..XX.XXX.X.XX..X..XXXX..XX.X..X.X.X.______________",
"_____________XX.XXXXXX.XX.X.XXXX.XX.X.X.XXXX..X..XX.X..XX.XXX.XX.+)))))))))))-XX.XX..XX.X..XX.XXX...XXX.X.XX.X.X.XX_____________",
"____________XX.X.XX.X.XXX.XX.X.XX.XXX.XX.X.XXXXXXX.XX.XX..X..X.X.2))))))))))^XXXXXXXX.XXX.XXXXXXX.XXXXX.XXXXXXXXXXXX____________",
"___________XXXXXXXXXXXXXXXXXXXXXXXXXXXXXXXXXXXXXXXXXXX*2qupffaiq5l))))))))))LXXXXX.XXXXXXXXXXXXXXXXXXXXXXXXXXXX.XXXXX___________",
"___________XXXXXXXXXXXXXXoXXXXXXXoXXXXXXXXXXXXXX#8lSE()))))))))))))))())))))b.XXXXXXXXXXXXXXXXXXXXXXXXXXXXXXXXXXXXXXX___________",
"__________oXXXXXXXXXoXXXXXXXXXXXXXXXXXXXXXXXX2cP))))))))))))))))))))))))))()uXXXXXXXXXXXXXXXXXXXoXXXXXXXXXXXoXXXXXXXXX__________",
"_________oXXXXXXXXXXXXXXXXXXXXXXXXXXXXXXXX,bQ)))))))))))))))))))))))))))))))JqX.XXXXooXXXXXXXXXXXXXXXoXXXXXXXXXXXXXXXXX_________",
"_________XOXXOOXXOXXXXOXXoXXOXXOXoXoXoXOyL))))))))))))))))))))))))))))))))))))WioXoXXXXoXoXooXoXOXXoXXXXoXoXoXXoXoXXXoX_________",
"________XXXoXoXoXoXoXoXoXoXXoXXXoXoXXXXV))))))))))))))))))))))))))))))))))))))))U5XXXXXXoXoXXXXXXXXXooXXXoXoXoXoXoXoXoXX________",
"________XOoXoXOXoXoXoXoXoXooXooooXooooo&W)))))))))))))))))))))))))))))))))))))))))m+oooXoXoooooOXOoooXoooXoXoXoXoXOXXOOX________",
"_______oOXOOXoXOoooXoooooooXXooooooXoXoo2/)))))))))))))))))(PCvjjxBP())))))))))))))I-oX+XOOXooOXOoXXoXoXXoXoooooXoXOOXOXO_______",
"_______XXOoXoooXXoooXoXoXXooooXXXXoooXooX,P)))))))))))))^m82uvCDDCvu17M/))))))))))))!1XOX#XooXXoXooooooooooXoXoXooXoXoXOO_______",
"______ooooooOXOoooXoooooooooooooooooooooXO+v)))))))))))(+q^))))))))))~N8x()))))))))))^,Xr!-XOOXXXoooooooXOOOooooOoXOOXOXoo______",
"______ooooooooXOooOoooooooooooooooooooooOOOXH))))))))))TXv))))))))))))))HqW)))))))))))Qe()R$XOOOOoooooooooXOooooooooOOOXoO______",
"_____OOoooooooOOOoOooOoooOOOoOOOooOOooOOOOOoE))))))))))G+S)))^HMbMH!)))))(rI)))))))))))))))FXOoOOOOoOoooOooOooOoOOXOOXOOooo_____",
"_____OOOooOOOOOOOoOOOoo+oooOOooOoOOoOOoOOO++())))))))))bXT)J8++oo+X+1v^)))(e!)))))))))))))))iOOoOOOoOOOooOOOoOOOoOOOOOOO+o+_____",
"____oOX+ooooOoooooooooooOOOOOOOOoooooooooOO;)))))))))))dO/)1OoooOoOOoo$m)))!q)))))))))))))))~$oOoOOOOOOOOOOOOOOOoooOooOooooO____",
"____+O+Xo+O+O+o++o+oo+o+OOOOOOOO+OO++o++OOO0)))))))))))0*))#+o+Oo+OO+o+Or())nS)))))))))))^)))jo+OOOOOOOOOOOOO+OOOO+OO+OOo+Oo____",
"____oOO+OOOOOoO+o++o+oooOOOOOOOOo+OOoOooOOOf)))))))))));6)!oo++o+O+OO+OOoq))(e)))))))))))!())W+oOOOOOOOOOOOOOO+OO+OOOOoOo+o+____",
"___+o++XO+OO++Ooo+ooo++o+OO+OOO+OOo+o++oOOOn))))))))))(@i)LOOoOooOOOOOOO+Xz))l!)))))))))))H)))5oOOOOOO+OO+OOOOOOOOo+O++O+oOO+___",
"___+++X++O++O+o+++++OO+OOO+OO+OO+O+Oo+O+O++G))))))))))WOv)BO+o++O+o+++O+O++R)TG)))))))))))C)))lO+O+O+OO++OOO+O+O+OO+O+OO+OO++___",
"___+o+++O+oo+O+O+O+o++OOO++OOOO+O++O+o+o+O+R))))))))))H+S)k+O++o+o+oOO+O+o+8(bb)))))))))))v)))S+O+O+O+O++O+O+OOOO+OO+oO+O+OOO___",
"__O++oo+++O+o++o+O+OO+O@+OO@++O+O++O+++o+O+())))))))))mOI)r++O+O+O+++++O+++o>@x)))))))))))mT))IO+OOO++OO++O++++++O+++++O+OO+O+__",
"__++++++O+++++++++O++++O+++OO++++O++O+++++;)))))))))))g+^)2+O+++O++o+O++o+++++v)))))))))))MH))W++++++O++O++O+OO++++Oo+++++++++__",
"__+++++++++++O+++++++++++++++++++++++++O++8)))))))))))q*))$+++++++++++++O+++++C)))))))))))vS))W+++++++++++++++++++O++++O++++++__",
"__+++++O+++++++++++++++++++++O++++++++++++d))))))))))),5)!++++++++++++++++++++P)))))))))))dF))Y++++++++++++++++++++++++++++++O__",
"_++++++++@@+++++++++++++++++++++++++++++++n)))))))))))#i)P@+++++++++++++++++@$()))))))))))5L))G+++++++++++@++++++++++++++++++++_",
"_+++++++++++++@+++++++++++@+++@+++++@+++++D))))))))))W@c)Z++++++++++++@++++++r)))))))))))(#!))v++++++++@+++++++++@++++@+++++@++_",
"_++++++@++++++++++++++++++++++@+++++++++++T))))))))))J+A)z++++++@++@++++++@@+J)))))))))))S*)))r@++++++@++++++++++++++++++++++++_",
"_+#@#++@@@@+#+#@@@@@+@@@@@@@@@+@@@++@@@@@@())))))))))M@I)u++@@@+@@+@@@+#@@@@9))))))))))))qu))(*@@@@@+@@+@@@@@+#+@@@@@@@@#+#+@@@_",
"_++++@@@@++@+++++@@+@++@@++@@+@@@++zcw-@+;)))))))))))j+^)5@++@@@+@@++@+++@@*W)))))))))))P@G))J@++@@++@@@@++@+@+#@+@+@@+++++#++@_",
"_#@@#+#+@@@@+#@@@@@@@@@@@+@@@@@@@@q))))^PS)))))))))))e*))*@@@@@@@++##+#+@+*P)))))))))))(2;)))e@@@@@@@@++@@@@@@@+@@@@+@@@+#+@#@@_",
"#+#++#+#@@@@@@@@@@@@@@@@@@@@@@@@@%W))))))))))))))))))25)^#@@@@@@@@@#@@@@#a~))))))))))))a+N))Y#@@@@@@@@@@@@@@@@@@@@@#@@@@#++#+@@@",
"+#+##+#+@@@@@@@@@@@@@@@@@@@@@@@@@b)))))))))))))))))))IP)W5*@@@@@@@@+@*qm~)))))))))))))f@6)))7@@@@@@@@@@@@+@@@@@+@@@+@@@++##+#@@@",
"@@#####+@##@+#+##@@@@##@@@@@#@@@2))))))))))))))))))))))))))^TJDZCZDLQ)))))))))))))))!w@-!))z@@@#@#@@@##@@#@@##+###+###@##+#@@@#@",
"##@#+####@@####@@#@@#@@@##@#@@##@;0pgznAL())))))))))))))))))))))))))))))))))))))))(n*@-U))Z##@@#@@#@@@@##@#@#@###+###+#@######@#",
"###+###@##@##@@#####@#####@####@@##@##@##^))))))))))))))))))))))))))))))))))))))Uj-#@1E))N#@#@#@##@######@###@#@##@#@##@@#@#####",
"@########@######@########@##@####-*$####;)))))))))))HmSPQ())))))))))))))))))Pmi;###$j()/p@######@######@#####################@@#",
"####################@############K))/!YLJ)))))))))))y####$1rzDW)))))))))))))B>##@>l!)(V;#@@$#############@######################",
"#################################elzxbBG!)))))))))))4##########;tNW)))))))))))FCT))Wv,##########################################",
"@#@#$#######$#########$##@##$@$@####$###v)))))))))))*>uq2-$########2v!)))))))))))v4$###$####$##################$###$##$#######$#",
"$$$###$$$$#$##$##$$##$##$$$#$#$##$$###$#S))))))))))!#z))))(WJMa4$$#$$$pW)))))))))!9##$###$#$##$##$$#$#$$#$$$$####$###$#$#$$#$#$#",
"$#$$#$#######$#$$##$$#$##$#$#$#$$#$#$##$I))))))))))P#C)ZizCJ!)))/Jl1$#$$x))))))))))d$##$#$$##$##$#$#$##$$##$#$#$$#$####$#####$#$",
"$$@$#$$#$$$$#$$##$#$#$##$##$$@$##$#$#$#$^))))))))))Z#L)d###$#*8jF~))Ia$$#r()))))))))j#$#$#$#$#$$#$#$#$###$##$#$###$$$#$#$$$$$#$#",
"$$$##$$$$$$#$$$$$#$$$$#$$$$$$$$#$$#$$#$-)))))))))))x$!)8$#$$$$#$$$5bQ)E8$$g))))))))))i$$$#$$#$#$$$$$$$#$$$$$$$$#$$$$$##$$$$#$$$#",
"#$$$$$#$$#$$$$#$$$$#$$$$$#$#$$$$$$$$$$$7)))))))))))u&))>$$#$$$$$$$$$$tY)x$$P)))))))))(4,*$$#$$$$##$$$$$$#$#$##$$#$$$$$$$$#$$#$$$",
"$$$$$$$$$$$$$$$$$$$$$$$$$$$$$$$$$$$$$$$p)))))))))))54)($$$$$$$$$$$$$$$%l)b$u))))))))))IP(H*$$$$$$$$$$$$$$$$%%$$$$$$$$$$$$$$$$$$$",
"$$$$$$$$$$$$$$$$$#&$$$$$$$$$$$$$$$$$$$$v)))))))))))-y)T$$$$$$$$$$$$$$$$$e)a*())))))))))N))G$$$$$$$$$$$$$$$$$$$$$$$$$$$$$$$$$$$$$",
"_%$$$$$$$$$$$$$$$$$$$$$$$$$$$$$$$$$$&$$S))))))))))^$z)G$%$$%$%$%$%%$$%%$$g(:P))))))))))WH))a%$$$$$$$$%$$%$%$%$%$#%%$#%$%$$$$&$&_",
"_%$$&$&$$%%%%$%$$&$$&$$$%$%$$%$%$$$%$$&P))))))))))I$B)n$$$%$%$%$%$$%%$$%%$JNS)))))))))))n))^*%$&$$$%$%%$$%$%$%$%%$$%%$%%$$$$$$$_",
"_&$$$$$$%$$%$$$%$$&$$&%$$%%%%$%$$$%$$$$^))))))))))A$K)f$$$$%$$%$$%$$$%%%$$4!A)))))))))))SW))g%$$$$%$$$%$%$%$$$%%%%$$%%%%$$&$&$$_",
"_&&$&&$&%%%%&%%%&$$&&%%%%%&%%%%%&$%%%$-)))))))))))v%!)q&&$&$%%%%%%%%%%%%&$&5H)))))))))))/N))I%%%%%%&%$&$%%%%%%%%%%%%%%%%&$$&$$&_",
"_$$$$$&$%%%%%%%%%%%%$$%%%%%%%%%%%%%%%$7)))))))))))p*)),$&$$%$$$$%%%%%%%%%%%%Z))))))))))))x)))>$%%%%%%%$&%%%%%%%%%%%%%%%%%%%%&$%_",
"_&&&$&$&%%%%%&%%%%%%&$%%%%%%%%%%%%%%&$p)))))))))))83)(&%$&&%&&&&%%%%%%%%%%%%J))))))))))))x)))t%%%&%%%%$&%%%%%%%%%%%%%%%%%%%%$&%_",
"__&$&$&$%&%%%%%%%&&%%%%&&%%&&%%%&%%%&%x)))))))))));y)T$&&$&$&$&$%&%%%%&%&%%%W))))))))))))z)))l&%%%&%&&%%&%%%&&%%%&%%%%&%&%%%&%__",
"__&$&&&&%&&%&&%&&%%%&&%%%%&%&%&%&%&%%&Z))))))))))^&k)H&%&$&&&&&$%%%%&%%%&%&;)))))))))))))x)))m%%&%%&&$&%%&&%%%%&%%%%&%%%&%&%%&__",
"__&&&&&&$&&$&&$&&&&&%%%%&%%&&&%%&&%&&&P))))))))))I&V)M&&$&&$&&$&&&%&%%&&%&&y)))))))))))))x)))N%&&&&%%&&&&%%%&&&&&%&&&&&&%&&&&&__",
"__&&&&%&&&&$&&&&&&&&&&&&&&&&&&&&%&%&&&!))))))))))S&J)g&&&&&&&&&&%&&&&&&%&&%A)))))))))))))v)))N&&&%&&&&&&&&&&&&&&&&&%&&&&%&$&$&__",
"___&&&&&&&&&&$&&&&&&&&&&&&&&&&&&&&&&&=)))))))))))b&W)e&&&&&&&&&&&&&&&&&&&&:()))))))))))))v)))b&&&&&&&&&&&&&&&&&&&&&&&&&&&&&&&___",
"___&&&&&&&&&&&&&&&&&&&&%&&&%&&&&&&&&&5)))))))))))d&))2&&&&&&&&&&&&&&&&&&&&b))))))))))))))b)))j&&&&%&&&&&&%&&&&&&&&&&&&&&&&&&&___",
"___&&&&&&&=&&&&&&&&&&&=&&&&&&&&&&&&&*i)))))))))))04)(=&&&&&&&*&&&&&&&&&&&7))))))))))))))WG)))y&&&&&&&&&&&&&&&&=&&&&&&&&&&&&&&___",
"____&&*&&&&&&&&&&&=&&&&&&&&=&&&&&&&&&b))))))))))),r)W=&&&&&&&&=&&=&&&&&&1W))))))))))))))V/)))1&&&&&&=&&&&&&&&&&&&&&==&&&&&*&____",
"____*&&&&=&&&&&&&&&&&=&&&&&&&&=&&&*>A)))))))))))/&j)J&&&&&&&&&&&&&&&&&&7W)))))))))))))))b)))W&&&*&&&&&=&&&&&&&=&&&&&&&&&*&&&____",
"____&**&&&&=&=&==&&-&&&&&&=&=&&=&&a^))))))))))))Q6V)N=&&&&&==&=&&==&&:v()))))))))))))))IJ)))C&=&*&**&=&&=&=&=&&&&&=&&=&=&**&____",
"_____=&&=&-&&&&&=&&=&&-&&&-&=&&&2J))))))))))))))))))WZvfr5:&&**&=&<yC^)))))))))))))))))x))))e&*&&**&**&*&=&&=&=&&==&&*&**&=_____",
"_____&=&&=&&&--&&&=&&=&&-&&&&&&a())))))))))))))))))))))))))(WIPPE~))))))))))))))))))))SP)))W=&&=*&*&&**&&=&==&&&&&&&=&*&&*&_____",
"______&=--&&&&&-&====&=&&--&=-N))))))))))))))))))))))))))))))))))))))))))))))))))))))Wb))))j*********&***&=&=&======&==*==______",
"______-&&&&---&&==&&&-&-&&&&&4gMHT()))))))))))))))))))))))))))))))))))))))))))))))))!h))))W-=&****&*****=&=*&==&-&&=&=&*=&______",
"_______=&===&-&-====&===-&-&=**=4WWTYTTTW^)))))))))))))))))))))))))))))))))))))))))Th())))y***=*********&==*===&&===*=*==_______",
"_______====&-&-&==&====&&-&-***8~))))))))!TTTTTE^)))))))))))))))))))))))))))))))))Vn)))))N************=*===*&======&**=**_______",
"________====-&&-&==&====&=-&=**W))))))))))))))))!TTTTTT~))))))))))))))))))))))))KjY)))))L-*===*=*-*--**-============*===________",
"________======-&==--====-==-===x)))))))))))))))))))))))^TTTTTT~))))))))))))))~CvL))))))P:*======**=**=**================________",
"_________===========&---&--&--&-:4ykBJW())))))))))))))))))))))~TTWQ!~~!WEPKFCF^)))))))H>-&---&-&-**==*==&-&&---&---&==-_________",
"_________==--===-==--&&-:&-&&-&-&----&&-4ykMHE/)))))))))))))))))))))))))))))))))))))(l&---&&&:&:*--*=--=-----&&--&&-===_________",
"__________-====--=-==-&:&---:&:&&--&-&-=:&&-&:&4ehMG(()))))))))))))))))))))))))))))K7--&-&&::-:&--*--==--&---&:-&-:--=__________",
"___________==--===-=---&--&-&:&:---:=---&:&-:&::=--:))))))()))))))))))))))))))))(Fe&----&::&:&&-*--*=-==--&-&:&----&=___________",
"___________-=--=-=-&--&:&::&:&----&&&--&:&:&:&:&-=-0))))))))))/dbFI^))))))))/UVa>-=---&&:&--&:&&*-*--=--&--&&--&---=-___________",
"____________-=-----=--:&:&::-----&:-:----:&:&:&>=--j))))))))))I--=--:470w07,------=---:------:::---=-=-=--------=--=____________",
"_____________-----=--&:-&::&&--&--:&-----:-:::&&---A))))))))))V-=-=--=-=---=&----=---&:&--&:-&&:-----=--:----------_____________",
"______________----------&:&::--:---------&-&:&>----Y))))))))))g-------------------------------:&--------&---------______________",
"______________;---------:::&:&>:------------------:())))))))))9-------------------------::----::------------------______________",
"_______________---------:&:&:->&----:---------:---0))))))))))(----------:---------:-----&:--:-&:-----------------_______________",
"________________:----:--::::>&-:--:---:----:----:-g))))))))))Y:----:-------------:------&::-&:&----------------;________________",
"_________________--:--:-:&&>::>&:-------:----:----V))))))))))Z---:----:--:--:--:----:--::---::::----:-:--:-:-:;_________________",
"__________________:--:----:--:&>--:----:--:-:--:-:I))))))))))k:-:--::-:-:-:::----:----:--:--:-:&:--:-::-:-:-:-__________________",
"___________________:-::-:-:-:-:::--:::--:--:-::--:())))))))))q----:-:--:------::--:::--:-:-:-::::--::---:--::___________________",
"____________________:--::--::--::--::--::-:::--::7)))))))))))>:::::-:-:::::::::-:::-:-:::--::-:-::----:::-::____________________",
"_____________________::-:::-::-::-::-::-:::-:-:::4cFW)))))))T--::-:-:::--:--:--::-:-:::--::-:::--::::::--::_____________________",
"______________________::::->-->;:::::-:-:->-;;;-::::>>tlAE(/A::-:::::-:-::;;;;;;:-:-::::;:-;::-:-;>->--;->______________________",
"_______________________:::::>;:;:::-::::::->:;::-::->:>->>>09::::-::::::::::::::::::::-:::::::::>>->;:>:>_______________________",
"_________________________:::>-->::::::::->>:;:::::->->::>>::>::::::-::::::::::::::::::::::::>::::;:-;>:_________________________",
"__________________________:::>;>>:::::::>>->>:::::>>->:>->>::>:::::::::::::::::::::>:::::::::::::>;>>-__________________________",
"___________________________:>->:::::::::>-->>::::::::::->->:>::::::::>:::::::::::::::::::::::>::>:>->___________________________",
"_____________________________>:>:>>:>:>:>>>;>:::>>:>>:>>>>>>>>>>>>:::>>:>:>:::>>>:>:>:>>:>::>::>::>_____________________________",
"______________________________>:>:>:>::>>;>>>>>>:>>>:>:>>:::>>>>:>>>>:>>:>:>:>:>:>>::>>>>::>::>:>>______________________________",
"________________________________:>>>>>>>>>>::>;>>:>:>:>:>>>>>>>>>::>:>>:>>>>>:>>>:>>:>>>>>>>>>>>________________________________",
"__________________________________>>>>>>>>>>>>>>>>>>>>>>>>>>>>>>>>>>>>>>>>>>>>>>>>>>>>>>>>>>>>__________________________________",
"____________________________________>>>>>>>>>>>>>>>>>>>>>>>>>>>>>>>>:>>>>:>>>>>>>>>>>>>>>>>>____________________________________",
"______________________________________>>>>>>>>>>>>>>>>>>>>>>>>><>>>>>>>>>>>>>>>>>>><>>>>>>______________________________________",
"________________________________________>>><>>>>>>>>>>>>><>>>>>>>>>>>>>:>>>>>>>>>>>>>>>>________________________________________",
"___________________________________________<<>>>3>><>>>>><>>>>>>>3>>>>>3><<>><>>><>>>___________________________________________",
"______________________________________________><>>>>>>>>>>>><><>>>>>>3>>>>>>>>><>>______________________________________________",
"__________________________________________________<>44>>><>>>>>>><>>>>><>><>><__________________________________________________",
"________________________________________________________><><><<><>>>><><________________________________________________________"
};
